<?xml version="1.0" encoding="UTF-8" standalone="no" ?>
<!DOCTYPE svg PUBLIC "-//W3C//DTD SVG 1.1//EN" "http://www.w3.org/Graphics/SVG/1.1/DTD/svg11.dtd">
<svg xmlns="http://www.w3.org/2000/svg" xmlns:xlink="http://www.w3.org/1999/xlink" version="1.1" width="1080" height="1080" viewBox="0 0 1080 1080" xml:space="preserve">
<desc>Created with Fabric.js 5.2.4</desc>
<defs>
</defs>
<g transform="matrix(1 0 0 1 540 540)" id="58312961-ce3e-4976-95fc-887f572d6170"  >
<rect style="stroke: none; stroke-width: 1; stroke-dasharray: none; stroke-linecap: butt; stroke-dashoffset: 0; stroke-linejoin: miter; stroke-miterlimit: 4; fill: rgb(255,255,255); fill-rule: nonzero; opacity: 1; visibility: hidden;" vector-effect="non-scaling-stroke"  x="-540" y="-540" rx="0" ry="0" width="1080" height="1080" />
</g>
<g transform="matrix(1 0 0 1 540 540)" id="06d4b412-f978-40b9-9b6b-3e3a14f9b5ac"  >
</g>
<g transform="matrix(-1 0 0 -1 540 540)" id="f0c8b216-6220-4960-a914-fb670981e751"  >
<path style="stroke: rgb(0,0,0); stroke-width: 0; stroke-dasharray: none; stroke-linecap: butt; stroke-dashoffset: 0; stroke-linejoin: miter; stroke-miterlimit: 4; fill: rgb(0,0,0); fill-rule: nonzero; opacity: 1;" vector-effect="non-scaling-stroke"  transform=" translate(-306, -306)" d="M 611.763 293.223 C 608.782 247.08100000000002 568.0550000000001 229.995 546.936 227.406 C 546.191 227.31300000000002 545.437 227.269 544.686 227.269 L 440.755 227.269 C 440.205 227.189 439.686 227.109 439.202 227.028 C 440.284 224.337 441.631 221.25199999999998 442.83 218.499 C 452.077 197.292 467.554 161.79899999999998 464.897 107.991 C 464.897 107.988 464.895 107.985 464.895 107.982 C 464.39799999999997 71.423 434.52299999999997 41.831999999999994 397.84799999999996 41.831999999999994 C 360.86499999999995 41.831999999999994 330.77599999999995 71.92099999999999 330.77599999999995 108.904 C 330.77599999999995 108.993 330.78799999999995 109.078 330.78999999999996 109.16799999999999 C 330.792 109.25799999999998 330.78099999999995 109.341 330.784 109.42999999999999 C 331.79699999999997 145.12199999999999 330.573 146.331 299.212 177.314 C 295.929 180.558 292.378 184.066 288.537 187.906 C 256.45 219.996 244.307 261.007 239.82899999999998 283.825 L 148.36499999999998 283.825 C 140.64999999999998 278.82599999999996 131.468 275.90999999999997 121.61199999999998 275.90999999999997 L 49.344 275.90999999999997 C 22.135 275.911 0 298.046 0 325.254 L 0 493.523 C 0 520.731 22.137 542.8670000000001 49.344 542.8670000000001 L 121.612 542.8670000000001 C 133.863 542.8670000000001 145.076 538.369 153.712 530.9520000000001 L 249.579 530.9520000000001 C 259.634 531.1880000000001 270.174 531.7430000000002 274.20300000000003 535.9100000000001 C 276.456 537.9050000000001 277.89300000000003 540.0730000000001 279.95000000000005 543.0250000000001 C 298.65000000000003 569.8260000000001 326.79100000000005 569.7030000000001 332.88200000000006 569.7950000000001 C 332.97600000000006 569.7980000000001 333.07200000000006 569.7950000000001 333.1670000000001 569.7950000000001 C 333.1670000000001 569.7950000000001 502.3040000000001 570.6320000000001 513.676 569.7950000000001 C 566.5740000000001 565.9060000000001 586.35 524.618 589.408 504.12200000000007 C 590.438 497.349 614.638 337.738 611.763 293.223 z M 133.948 493.525 C 133.948 500.327 128.41400000000002 505.861 121.61200000000001 505.861 L 49.344 505.861 C 42.542 505.861 37.008 500.327 37.008 493.525 L 37.008 325.256 C 37.008 318.45399999999995 42.542 312.91999999999996 49.344 312.91999999999996 L 121.612 312.91999999999996 C 128.414 312.91999999999996 133.948 318.45399999999995 133.948 325.256 L 133.948 493.525 L 133.948 493.525 z M 170.747 320.835 L 170.83200000000002 320.835 C 170.807 321.117 170.779 321.188 170.747 320.835 z M 552.814 498.606 C 552.802 498.675 551.3629999999999 506.088 546.108 513.583 C 538.5889999999999 524.307 526.765 530.334 510.96199999999993 531.495 C 499.6209999999999 532.329 333.3159999999999 532.789 333.3159999999999 532.789 C 331.9609999999999 532.7669999999999 317.67599999999993 533.566 310.5159999999999 522.16 C 307.9609999999999 518.084 304.4309999999999 513.247 298.74099999999993 508.207 C 283.7749999999999 494.949 256.2749999999999 493.919 248.20399999999992 493.919 L 170.9439999999999 493.919 C 170.9459999999999 493.779 170.9549999999999 320.83399999999995 170.9549999999999 320.83399999999995 L 255.7889999999999 320.83399999999995 C 265.5079999999999 320.83399999999995 273.5699999999999 313.31399999999996 274.2479999999999 303.61899999999997 C 274.28499999999985 303.092 278.35399999999987 250.42999999999998 314.70799999999986 214.07599999999996 C 318.4909999999999 210.29199999999997 321.98899999999986 206.83599999999996 325.22099999999983 203.64299999999997 C 360.7239999999998 168.56599999999997 369.1349999999998 158.30199999999996 367.78599999999983 108.84299999999998 C 367.8179999999998 92.29399999999998 381.2909999999998 78.83899999999997 397.8469999999998 78.83899999999997 C 414.4249999999998 78.83899999999997 427.91099999999983 92.32699999999997 427.91099999999983 108.90299999999996 C 427.91099999999983 109.05699999999996 427.9329999999998 109.20699999999997 427.93399999999986 109.36099999999996 C 427.93899999999985 109.51399999999997 427.9259999999999 109.66199999999996 427.93399999999986 109.81599999999996 C 430.1639999999999 154.95799999999997 417.37099999999987 184.29499999999996 408.90599999999984 203.70899999999995 C 401.9929999999998 219.56199999999995 396.02399999999983 233.25299999999996 403.68899999999985 246.81799999999996 C 410.67299999999983 259.179 425.19799999999987 262.55699999999996 437.07099999999986 264.11899999999997 C 437.8729999999999 264.224 438.6779999999999 264.27799999999996 439.48399999999987 264.27799999999996 L 543.2749999999999 264.27799999999996 C 549.1299999999999 265.29599999999994 573.2389999999998 270.97599999999994 574.8289999999998 295.60799999999995 C 577.005 329.257 559.68 453.514 552.814 498.606 z" stroke-linecap="round" />
</g>
</svg>